<svg xmlns="http://www.w3.org/2000/svg" xmlns:xlink="http://www.w3.org/1999/xlink" width="500" zoomAndPan="magnify" viewBox="0 0 375 374.999991" height="500" preserveAspectRatio="xMidYMid meet" version="1.0"><defs><g/><clipPath id="b6cb9d2a06"><path d="M 91.875 151.335938 L 283.125 151.335938 L 283.125 245.085938 L 91.875 245.085938 Z M 91.875 151.335938 " clip-rule="nonzero"/></clipPath><clipPath id="d8a3ae5732"><path d="M 110.574219 157.292969 L 226 157.292969 L 226 239.042969 L 110.574219 239.042969 Z M 110.574219 157.292969 " clip-rule="nonzero"/></clipPath><clipPath id="5bc0a5bd24"><path d="M 225 164 L 264.324219 164 L 264.324219 233 L 225 233 Z M 225 164 " clip-rule="nonzero"/></clipPath></defs><g fill="#ffffff" fill-opacity="1"><g transform="translate(68.30377, 138.784714)"><g><path d="M 18.75 0 L 0.953125 0 L 0.953125 -3.8125 L 10.84375 -17.859375 L 1.1875 -17.859375 L 1.1875 -22.84375 L 18.5 -22.84375 L 18.5 -19.046875 L 8.609375 -4.984375 L 18.75 -4.984375 Z M 18.75 0 "/></g></g></g><g fill="#ffffff" fill-opacity="1"><g transform="translate(95.109911, 138.784714)"><g><path d="M 16.484375 0 L 15.359375 -4.28125 L 7.9375 -4.28125 L 6.78125 0 L 0 0 L 7.453125 -22.9375 L 15.6875 -22.9375 L 23.234375 0 Z M 14.078125 -9.34375 L 13.09375 -13.09375 C 12.863281 -13.925781 12.582031 -15.003906 12.25 -16.328125 C 11.925781 -17.648438 11.710938 -18.597656 11.609375 -19.171875 C 11.515625 -18.640625 11.328125 -17.765625 11.046875 -16.546875 C 10.773438 -15.328125 10.164062 -12.925781 9.21875 -9.34375 Z M 14.078125 -9.34375 "/></g></g></g><g fill="#ffffff" fill-opacity="1"><g transform="translate(125.602652, 138.784714)"><g><path d="M 11.640625 -13.375 L 21.5 -13.375 L 21.5 -1.0625 C 18.820312 -0.144531 15.878906 0.3125 12.671875 0.3125 C 9.148438 0.3125 6.425781 -0.707031 4.5 -2.75 C 2.582031 -4.789062 1.625 -7.703125 1.625 -11.484375 C 1.625 -15.171875 2.675781 -18.039062 4.78125 -20.09375 C 6.882812 -22.144531 9.832031 -23.171875 13.625 -23.171875 C 15.0625 -23.171875 16.414062 -23.035156 17.6875 -22.765625 C 18.96875 -22.492188 20.082031 -22.148438 21.03125 -21.734375 L 19.078125 -16.890625 C 17.429688 -17.703125 15.625 -18.109375 13.65625 -18.109375 C 11.851562 -18.109375 10.457031 -17.519531 9.46875 -16.34375 C 8.488281 -15.175781 8 -13.503906 8 -11.328125 C 8 -9.191406 8.441406 -7.5625 9.328125 -6.4375 C 10.222656 -5.320312 11.507812 -4.765625 13.1875 -4.765625 C 14.101562 -4.765625 14.945312 -4.851562 15.71875 -5.03125 L 15.71875 -8.609375 L 11.640625 -8.609375 Z M 11.640625 -13.375 "/></g></g></g><g fill="#ffffff" fill-opacity="1"><g transform="translate(156.548407, 138.784714)"><g/></g></g><g fill="#ffffff" fill-opacity="1"><g transform="translate(172.122916, 138.784714)"><g><path d="M 12.421875 0 L 7.75 -16.453125 L 7.609375 -16.453125 C 7.828125 -13.648438 7.9375 -11.472656 7.9375 -9.921875 L 7.9375 0 L 2.46875 0 L 2.46875 -22.84375 L 10.6875 -22.84375 L 15.453125 -6.625 L 15.578125 -6.625 L 20.25 -22.84375 L 28.484375 -22.84375 L 28.484375 0 L 22.8125 0 L 22.8125 -10.015625 C 22.8125 -10.535156 22.816406 -11.113281 22.828125 -11.75 C 22.847656 -12.382812 22.921875 -13.941406 23.046875 -16.421875 L 22.90625 -16.421875 L 18.296875 0 Z M 12.421875 0 "/></g></g></g><g fill="#ffffff" fill-opacity="1"><g transform="translate(210.316906, 138.784714)"><g><path d="M 21.890625 -22.84375 L 21.890625 -9.09375 C 21.890625 -6.101562 21.039062 -3.785156 19.34375 -2.140625 C 17.65625 -0.503906 15.21875 0.3125 12.03125 0.3125 C 8.914062 0.3125 6.519531 -0.484375 4.84375 -2.078125 C 3.175781 -3.671875 2.34375 -5.960938 2.34375 -8.953125 L 2.34375 -22.84375 L 8.546875 -22.84375 L 8.546875 -9.4375 C 8.546875 -7.820312 8.847656 -6.648438 9.453125 -5.921875 C 10.054688 -5.191406 10.945312 -4.828125 12.125 -4.828125 C 13.382812 -4.828125 14.296875 -5.1875 14.859375 -5.90625 C 15.429688 -6.632812 15.71875 -7.820312 15.71875 -9.46875 L 15.71875 -22.84375 Z M 21.890625 -22.84375 "/></g></g></g><g fill="#ffffff" fill-opacity="1"><g transform="translate(241.793787, 138.784714)"><g><path d="M 17.40625 -6.9375 C 17.40625 -5.519531 17.046875 -4.257812 16.328125 -3.15625 C 15.609375 -2.0625 14.570312 -1.207031 13.21875 -0.59375 C 11.863281 0.0078125 10.273438 0.3125 8.453125 0.3125 C 6.929688 0.3125 5.65625 0.207031 4.625 0 C 3.59375 -0.21875 2.519531 -0.59375 1.40625 -1.125 L 1.40625 -6.625 C 2.582031 -6.019531 3.804688 -5.546875 5.078125 -5.203125 C 6.347656 -4.867188 7.515625 -4.703125 8.578125 -4.703125 C 9.492188 -4.703125 10.164062 -4.859375 10.59375 -5.171875 C 11.019531 -5.492188 11.234375 -5.90625 11.234375 -6.40625 C 11.234375 -6.71875 11.144531 -6.988281 10.96875 -7.21875 C 10.800781 -7.457031 10.523438 -7.695312 10.140625 -7.9375 C 9.765625 -8.175781 8.753906 -8.664062 7.109375 -9.40625 C 5.617188 -10.082031 4.5 -10.738281 3.75 -11.375 C 3.007812 -12.007812 2.457031 -12.738281 2.09375 -13.5625 C 1.738281 -14.382812 1.5625 -15.359375 1.5625 -16.484375 C 1.5625 -18.585938 2.328125 -20.226562 3.859375 -21.40625 C 5.390625 -22.582031 7.492188 -23.171875 10.171875 -23.171875 C 12.535156 -23.171875 14.945312 -22.625 17.40625 -21.53125 L 15.515625 -16.765625 C 13.378906 -17.742188 11.535156 -18.234375 9.984375 -18.234375 C 9.179688 -18.234375 8.597656 -18.09375 8.234375 -17.8125 C 7.867188 -17.53125 7.6875 -17.179688 7.6875 -16.765625 C 7.6875 -16.316406 7.914062 -15.914062 8.375 -15.5625 C 8.84375 -15.207031 10.101562 -14.5625 12.15625 -13.625 C 14.125 -12.738281 15.488281 -11.785156 16.25 -10.765625 C 17.019531 -9.753906 17.40625 -8.476562 17.40625 -6.9375 Z M 17.40625 -6.9375 "/></g></g></g><g fill="#ffffff" fill-opacity="1"><g transform="translate(267.522071, 138.784714)"><g><path d="M 2.46875 0 L 2.46875 -22.84375 L 8.671875 -22.84375 L 8.671875 0 Z M 2.46875 0 "/></g></g></g><g fill="#ffffff" fill-opacity="1"><g transform="translate(285.924009, 138.784714)"><g><path d="M 12.640625 -18.109375 C 11.171875 -18.109375 10.023438 -17.503906 9.203125 -16.296875 C 8.378906 -15.097656 7.96875 -13.441406 7.96875 -11.328125 C 7.96875 -6.929688 9.640625 -4.734375 12.984375 -4.734375 C 13.992188 -4.734375 14.972656 -4.875 15.921875 -5.15625 C 16.867188 -5.4375 17.820312 -5.773438 18.78125 -6.171875 L 18.78125 -0.953125 C 16.875 -0.109375 14.71875 0.3125 12.3125 0.3125 C 8.863281 0.3125 6.21875 -0.6875 4.375 -2.6875 C 2.539062 -4.6875 1.625 -7.578125 1.625 -11.359375 C 1.625 -13.722656 2.066406 -15.800781 2.953125 -17.59375 C 3.847656 -19.382812 5.128906 -20.757812 6.796875 -21.71875 C 8.472656 -22.6875 10.441406 -23.171875 12.703125 -23.171875 C 15.171875 -23.171875 17.53125 -22.632812 19.78125 -21.5625 L 17.890625 -16.703125 C 17.046875 -17.097656 16.203125 -17.429688 15.359375 -17.703125 C 14.515625 -17.972656 13.609375 -18.109375 12.640625 -18.109375 Z M 12.640625 -18.109375 "/></g></g></g><g clip-path="url(#b6cb9d2a06)"><path fill="#ffffff" d="M 91.875 151.335938 L 91.875 245.085938 L 283.125 245.085938 L 283.125 151.335938 L 91.875 151.335938 M 277.03125 239 L 97.839844 239 L 97.839844 157.292969 L 277.03125 157.292969 L 277.03125 239 " fill-opacity="1" fill-rule="nonzero"/></g><g clip-path="url(#d8a3ae5732)"><path fill="#ffffff" d="M 224.941406 173.828125 L 224.941406 174.683594 C 224.578125 179.394531 224.398438 181.773438 224.035156 186.554688 C 223.851562 186.539062 223.761719 186.527344 223.578125 186.511719 C 223.214844 181.984375 223.039062 179.703125 222.671875 175.109375 L 222.671875 177.722656 C 222.492188 179.78125 222.394531 180.8125 222.214844 182.890625 C 221.484375 182.453125 221.117188 182.234375 220.378906 181.796875 C 220.195312 182.128906 220.105469 182.292969 219.917969 182.628906 C 219.730469 182.253906 219.640625 182.066406 219.457031 181.6875 C 219.269531 173.824219 219.179688 169.878906 218.992188 161.964844 L 218.992188 163.753906 C 218.4375 167.917969 218.15625 170.023438 217.601562 174.265625 C 217.414062 173.878906 217.316406 173.683594 217.132812 173.292969 C 216.761719 175.046875 216.574219 175.925781 216.195312 177.703125 C 215.824219 176.199219 215.632812 175.445312 215.257812 173.929688 C 214.882812 171.679688 214.695312 170.550781 214.320312 168.28125 C 214.132812 173.402344 214.039062 175.972656 213.847656 181.117188 C 213.46875 178.503906 213.285156 177.1875 212.902344 174.546875 C 212.710938 174.523438 212.617188 174.511719 212.429688 174.488281 L 212.429688 177.277344 C 212.242188 182.832031 212.148438 185.613281 211.957031 191.195312 C 211.578125 194.160156 211.386719 195.652344 211.003906 198.644531 C 210.8125 198.644531 210.71875 198.644531 210.53125 198.644531 C 210.339844 198.269531 210.246094 198.082031 210.050781 197.707031 L 210.050781 196.769531 C 209.863281 191.128906 209.765625 188.304688 209.574219 182.644531 C 209.003906 178.464844 208.714844 176.363281 208.140625 172.136719 C 207.949219 172.492188 207.851562 172.675781 207.660156 173.035156 C 207.277344 170.34375 207.085938 168.988281 206.703125 166.277344 C 206.507812 173.871094 206.410156 177.679688 206.21875 185.300781 C 206.027344 185.292969 205.933594 185.285156 205.738281 185.277344 L 205.253906 184.300781 C 205.0625 177.785156 204.96875 174.519531 204.773438 167.984375 C 204.386719 164.496094 204.195312 162.742188 203.808594 159.238281 C 203.613281 167.675781 203.519531 171.902344 203.328125 180.367188 C 202.9375 180.34375 202.742188 180.335938 202.355469 180.316406 C 202.160156 185.714844 202.066406 188.414062 201.867188 193.824219 C 201.285156 193.433594 200.996094 193.234375 200.410156 192.835938 C 200.023438 184.683594 199.828125 180.597656 199.441406 172.40625 C 199.246094 172.394531 199.152344 172.386719 198.953125 172.378906 C 198.953125 177.828125 198.953125 180.554688 198.953125 186.007812 C 198.5625 187.164062 198.367188 187.746094 197.976562 188.910156 C 197.390625 188.117188 197.101562 187.722656 196.515625 186.925781 L 196.515625 187.90625 C 196.320312 188.296875 196.222656 188.492188 196.027344 188.878906 C 195.828125 188.484375 195.730469 188.285156 195.535156 187.890625 C 195.339844 179.660156 195.242188 175.542969 195.046875 167.300781 C 194.652344 163.363281 194.460938 161.390625 194.066406 157.449219 C 193.871094 157.832031 193.777344 158.023438 193.578125 158.40625 C 193.382812 170.574219 193.285156 176.660156 193.089844 188.839844 C 192.890625 188.445312 192.796875 188.25 192.601562 187.855469 L 192.601562 185.890625 C 192.011719 185.097656 191.71875 184.703125 191.128906 183.910156 C 190.738281 173.273438 190.539062 167.953125 190.144531 157.3125 C 189.949219 157.703125 189.855469 157.898438 189.660156 158.289062 C 189.460938 168.136719 189.363281 173.058594 189.167969 182.910156 C 188.773438 181.726562 188.582031 181.132812 188.183594 179.949219 C 187.988281 180.34375 187.890625 180.539062 187.695312 180.933594 C 187.5 180.539062 187.398438 180.34375 187.203125 179.949219 C 186.8125 175.613281 186.617188 173.449219 186.222656 169.113281 C 185.832031 164.386719 185.632812 162.027344 185.242188 157.304688 C 185.046875 169.519531 184.945312 175.628906 184.75 187.835938 C 184.160156 189.019531 183.867188 189.617188 183.277344 190.800781 C 183.082031 191.191406 182.984375 191.390625 182.789062 191.785156 C 182.59375 191.390625 182.496094 191.199219 182.296875 190.804688 L 182.296875 187.855469 C 181.90625 183.535156 181.710938 181.375 181.320312 177.066406 L 181.320312 179.027344 C 181.125 179.421875 181.023438 179.625 180.832031 180.019531 C 180.4375 176.496094 180.242188 174.734375 179.851562 171.222656 L 179.851562 183.964844 C 179.460938 185.539062 179.265625 186.328125 178.875 187.898438 C 178.679688 187.902344 178.578125 187.90625 178.382812 187.90625 C 178.1875 187.519531 178.089844 187.324219 177.894531 186.9375 L 177.894531 182.050781 C 177.503906 180.890625 177.308594 180.308594 176.917969 179.15625 C 176.527344 176.828125 176.335938 175.667969 175.945312 173.351562 L 175.945312 186.980469 C 175.164062 188.945312 174.773438 189.925781 174 191.875 C 173.609375 190.335938 173.417969 189.5625 173.027344 188.027344 C 172.25 181.085938 171.863281 177.632812 171.089844 170.773438 L 171.089844 173.660156 C 170.898438 177.136719 170.796875 178.875 170.605469 182.339844 C 170.21875 185.046875 170.027344 186.394531 169.640625 189.085938 C 169.253906 187.566406 169.0625 186.808594 168.679688 185.300781 C 168.292969 184.554688 168.101562 184.183594 167.714844 183.445312 C 167.714844 177.742188 167.71875 174.890625 167.71875 169.1875 C 167.140625 166.59375 166.851562 165.300781 166.273438 162.738281 L 166.273438 163.683594 C 166.082031 170.511719 165.992188 173.925781 165.800781 180.730469 C 165.609375 180.367188 165.515625 180.183594 165.324219 179.820312 C 165.132812 180.214844 165.039062 180.410156 164.84375 180.800781 L 164.84375 184.558594 C 164.460938 185.707031 164.273438 186.28125 163.890625 187.421875 C 163.703125 187.058594 163.605469 186.875 163.417969 186.511719 C 163.417969 185.390625 163.414062 184.832031 163.414062 183.714844 C 163.226562 174.394531 163.132812 169.746094 162.941406 160.46875 L 162.941406 162.332031 C 162.5625 171.707031 162.375 176.375 161.996094 185.664062 C 161.617188 184.949219 161.425781 184.59375 161.046875 183.882812 C 160.480469 179.132812 160.199219 176.773438 159.636719 172.097656 L 159.636719 174.84375 C 159.449219 179.992188 159.355469 182.558594 159.164062 187.683594 C 158.417969 190.28125 158.042969 191.570312 157.296875 194.117188 C 157.113281 193.761719 157.023438 193.582031 156.835938 193.230469 L 156.835938 182.433594 C 156.460938 181.75 156.273438 181.414062 155.90625 180.742188 L 155.90625 181.636719 C 155.71875 182.011719 155.628906 182.203125 155.441406 182.578125 C 155.257812 182.242188 155.167969 182.078125 154.980469 181.742188 C 154.613281 177.164062 154.425781 174.890625 154.058594 170.375 L 154.058594 173.019531 C 153.691406 181.917969 153.503906 186.332031 153.140625 195.105469 C 152.957031 194.757812 152.867188 194.589844 152.683594 194.246094 C 152.5 188.660156 152.40625 185.875 152.226562 180.332031 C 151.496094 177.300781 151.132812 175.808594 150.410156 172.878906 C 150.046875 180.160156 149.867188 183.773438 149.507812 190.945312 C 149.328125 190.617188 149.238281 190.453125 149.058594 190.128906 C 148.519531 190.503906 148.25 190.691406 147.714844 191.066406 C 147.179688 180.382812 146.910156 175.109375 146.378906 164.714844 C 146.203125 165.105469 146.117188 165.300781 145.9375 165.6875 L 145.9375 191.1875 C 145.582031 192.199219 145.410156 192.699219 145.058594 193.695312 C 144.878906 193.375 144.792969 193.21875 144.617188 192.90625 L 144.617188 190.46875 C 144.441406 188.539062 144.355469 187.578125 144.179688 185.664062 C 143.65625 186.058594 143.390625 186.257812 142.871094 186.644531 C 142.351562 185.757812 142.09375 185.324219 141.578125 184.472656 L 141.578125 182.121094 C 141.0625 182.535156 140.804688 182.742188 140.292969 183.148438 C 139.78125 176.777344 139.527344 173.644531 139.019531 167.496094 L 139.019531 169.769531 C 138.851562 171.957031 138.769531 173.042969 138.601562 175.207031 C 138.261719 172.300781 138.09375 170.867188 137.757812 168.039062 L 137.757812 180.691406 C 137.421875 181.964844 137.257812 182.59375 136.921875 183.84375 C 136.757812 183.878906 136.679688 183.898438 136.507812 183.933594 L 136.507812 185.394531 C 136.34375 185.71875 136.265625 185.878906 136.097656 186.203125 C 135.933594 185.941406 135.851562 185.816406 135.683594 185.558594 L 135.683594 178.347656 C 135.355469 177.300781 135.191406 176.785156 134.863281 175.765625 L 134.863281 179.324219 C 134.539062 187.109375 134.375 190.953125 134.050781 198.527344 C 133.722656 198.523438 133.5625 198.523438 133.246094 198.523438 C 132.597656 193.261719 132.277344 190.703125 131.648438 185.757812 C 131.328125 186.90625 131.167969 187.472656 130.855469 188.589844 C 130.382812 184.71875 130.148438 182.828125 129.679688 179.148438 L 129.679688 188.179688 C 129.371094 190.3125 129.214844 191.355469 128.910156 193.417969 C 128.753906 193.183594 128.675781 193.066406 128.523438 192.832031 C 128.523438 190.316406 128.523438 189.058594 128.523438 186.546875 C 128.214844 186.625 128.0625 186.667969 127.761719 186.75 C 127.457031 184.613281 127.300781 183.558594 127 181.503906 C 126.699219 187.203125 126.550781 190.003906 126.25 195.5 C 125.953125 193.617188 125.804688 192.691406 125.507812 190.882812 L 125.507812 192.632812 C 125.359375 193.121094 125.285156 193.367188 125.136719 193.84375 C 124.988281 193.632812 124.917969 193.527344 124.773438 193.316406 C 124.773438 191.261719 124.769531 190.230469 124.769531 188.171875 C 124.480469 187.800781 124.332031 187.617188 124.039062 187.265625 L 124.039062 184.464844 C 123.75 182.570312 123.605469 181.640625 123.320312 179.835938 C 123.03125 186.789062 122.890625 190.1875 122.605469 196.835938 C 122.320312 194.707031 122.179688 193.671875 121.894531 191.644531 C 121.613281 192.125 121.472656 192.355469 121.195312 192.820312 C 121.054688 192.640625 120.988281 192.554688 120.851562 192.386719 L 120.851562 190.367188 C 120.433594 189.679688 120.226562 189.351562 119.820312 188.730469 C 119.550781 184.761719 119.410156 182.832031 119.144531 179.089844 C 119.007812 185.417969 118.9375 188.539062 118.808594 194.691406 C 118.671875 194.527344 118.605469 194.445312 118.476562 194.285156 C 118.207031 189.019531 118.070312 186.460938 117.8125 181.511719 C 117.550781 181.179688 117.417969 181.023438 117.160156 180.730469 L 117.160156 188.054688 C 116.898438 189.5625 116.773438 190.292969 116.515625 191.710938 C 116.132812 191.34375 115.945312 191.171875 115.566406 190.851562 L 115.566406 188.078125 C 115.316406 185.851562 115.191406 184.777344 114.941406 182.71875 C 114.695312 189.210938 114.570312 192.339844 114.328125 198.359375 C 114.203125 198.359375 114.144531 198.355469 114.019531 198.355469 C 113.898438 198.210938 113.839844 198.140625 113.722656 198 L 113.722656 197.648438 C 113.605469 197.226562 113.539062 197.023438 113.417969 196.625 C 113.183594 195.128906 113.0625 194.414062 112.824219 193.050781 C 112.589844 192.882812 112.476562 192.804688 112.242188 192.65625 C 112.011719 193.015625 111.898438 193.1875 111.667969 193.523438 C 111.554688 193.449219 111.496094 193.414062 111.386719 193.347656 L 111.386719 191.59375 C 111.160156 191.378906 111.046875 191.285156 110.824219 191.109375 L 110.824219 209.402344 C 110.9375 209.417969 110.992188 209.421875 111.101562 209.429688 C 111.328125 208.078125 111.4375 207.359375 111.667969 205.832031 C 111.898438 205.75 112.011719 205.703125 112.246094 205.589844 C 112.476562 205.734375 112.589844 205.804688 112.824219 205.945312 C 113.0625 203.574219 113.183594 202.328125 113.421875 199.730469 C 113.78125 199.355469 113.960938 199.15625 114.328125 198.726562 C 114.449219 198.878906 114.511719 198.953125 114.632812 199.113281 C 114.632812 201.058594 114.632812 202.035156 114.632812 203.980469 C 114.878906 207.964844 115.007812 210.035156 115.25 214.3125 L 115.25 213.921875 C 115.5 211.199219 115.628906 209.78125 115.878906 206.839844 C 116.132812 207.445312 116.261719 207.757812 116.515625 208.390625 C 116.644531 208.292969 116.710938 208.242188 116.835938 208.136719 C 117.097656 211.320312 117.226562 212.960938 117.488281 216.335938 C 117.746094 212.714844 117.878906 210.839844 118.144531 206.972656 C 118.40625 204.550781 118.539062 203.304688 118.808594 200.730469 C 118.941406 200.933594 119.007812 201.03125 119.144531 201.238281 C 119.277344 207.851562 119.34375 211.207031 119.484375 218.007812 L 119.484375 216.570312 C 119.617188 215.335938 119.6875 214.707031 119.824219 213.433594 C 119.957031 213.515625 120.023438 213.554688 120.164062 213.636719 L 120.164062 212.167969 C 120.296875 211.847656 120.367188 211.683594 120.507812 211.351562 C 120.78125 209.503906 120.921875 208.546875 121.199219 206.59375 C 121.476562 207.289062 121.617188 207.644531 121.898438 208.371094 C 122.179688 205.121094 122.320312 203.457031 122.605469 200.050781 C 122.746094 200.269531 122.820312 200.382812 122.960938 200.609375 C 123.105469 207.550781 123.175781 211.058594 123.324219 218.160156 C 123.75 215.796875 123.96875 214.570312 124.40625 212.03125 C 124.699219 209.433594 124.84375 208.109375 125.140625 205.394531 C 125.4375 206.378906 125.582031 206.878906 125.882812 207.894531 L 125.882812 206.132812 C 126.027344 204.277344 126.105469 203.339844 126.25 201.449219 C 126.402344 201.699219 126.480469 201.824219 126.628906 202.082031 C 126.628906 202.804688 126.625 203.160156 126.625 203.878906 C 126.773438 209.671875 126.851562 212.59375 127 218.488281 C 127.304688 216.703125 127.460938 215.789062 127.761719 213.925781 C 127.914062 214.230469 127.988281 214.382812 128.140625 214.6875 C 128.296875 214.75 128.371094 214.777344 128.523438 214.835938 C 128.675781 211.375 128.753906 209.628906 128.910156 206.105469 C 129.0625 206.386719 129.140625 206.527344 129.296875 206.808594 C 129.605469 214.035156 129.761719 217.707031 130.070312 225.171875 L 130.070312 223.21875 C 130.230469 219.917969 130.304688 218.253906 130.464844 214.898438 C 131.089844 214.328125 131.40625 214.023438 132.042969 213.398438 C 132.199219 210.46875 132.285156 208.992188 132.441406 206.015625 C 132.761719 203.335938 132.921875 201.976562 133.242188 199.210938 C 133.566406 199.21875 133.730469 199.222656 134.050781 199.226562 C 134.214844 199.511719 134.292969 199.652344 134.457031 199.941406 C 134.785156 209.558594 134.949219 214.4375 135.273438 224.316406 C 135.273438 223.457031 135.277344 223.027344 135.277344 222.171875 C 135.605469 220.007812 135.769531 218.910156 136.097656 216.679688 C 136.429688 217.9375 136.59375 218.574219 136.925781 219.859375 L 136.925781 218.390625 C 137.089844 218.148438 137.175781 218.023438 137.34375 217.773438 C 137.675781 222.308594 137.84375 224.601562 138.179688 229.246094 L 138.179688 227 C 138.347656 225.570312 138.433594 224.855469 138.601562 223.40625 C 138.769531 223.765625 138.851562 223.945312 139.019531 224.3125 L 139.019531 225.828125 C 139.527344 219.957031 139.78125 216.972656 140.296875 210.890625 C 140.804688 213.441406 141.0625 214.734375 141.582031 217.367188 L 141.582031 215.015625 C 141.921875 214.457031 142.09375 214.179688 142.441406 213.609375 C 142.613281 213.640625 142.699219 213.65625 142.871094 213.6875 C 143.394531 214.101562 143.660156 214.304688 144.179688 214.726562 L 144.179688 213.921875 C 144.53125 210.105469 144.707031 208.175781 145.058594 204.289062 C 145.230469 204.625 145.320312 204.796875 145.496094 205.136719 C 145.675781 215.304688 145.761719 220.40625 145.9375 230.664062 C 146.289062 231.441406 146.46875 231.832031 146.824219 232.617188 C 147 226.039062 147.089844 222.734375 147.269531 216.097656 C 147.628906 212.824219 147.804688 211.175781 148.164062 207.84375 C 148.34375 208.195312 148.429688 208.375 148.613281 208.726562 C 148.789062 208.746094 148.878906 208.753906 149.058594 208.773438 L 149.058594 207.074219 C 149.238281 206.75 149.328125 206.589844 149.507812 206.261719 C 149.691406 206.613281 149.777344 206.789062 149.960938 207.144531 L 149.960938 228.5 C 150.320312 229.964844 150.5 230.703125 150.863281 232.183594 C 150.863281 229.429688 150.867188 228.046875 150.867188 225.292969 C 151.40625 224.730469 151.679688 224.441406 152.226562 223.855469 C 152.59375 215.222656 152.773438 210.875 153.140625 202.121094 C 153.324219 202.476562 153.414062 202.65625 153.601562 203.015625 C 153.601562 205.480469 153.597656 206.707031 153.597656 209.171875 C 153.96875 218.351562 154.152344 222.96875 154.519531 232.269531 L 154.519531 229.613281 C 154.703125 227.171875 154.796875 225.953125 154.984375 223.496094 C 155.535156 222.171875 155.8125 221.5 156.371094 220.144531 C 156.738281 214.820312 156.929688 212.140625 157.300781 206.746094 C 157.488281 206.757812 157.578125 206.761719 157.765625 206.773438 C 157.949219 207.144531 158.046875 207.328125 158.234375 207.703125 C 158.417969 207.351562 158.515625 207.175781 158.699219 206.820312 C 158.886719 207.195312 158.980469 207.382812 159.167969 207.757812 L 159.167969 209.582031 C 159.542969 218.367188 159.734375 222.785156 160.109375 231.660156 L 160.109375 228.910156 C 160.484375 224.203125 160.671875 221.835938 161.046875 217.082031 C 161.617188 218.242188 161.902344 218.828125 162.46875 220.003906 L 162.46875 222.792969 C 162.847656 228.414062 163.039062 231.234375 163.417969 236.902344 C 163.605469 227.605469 163.703125 222.945312 163.894531 213.609375 C 164.273438 218.496094 164.464844 220.957031 164.847656 225.886719 L 164.847656 220.25 C 165.230469 219.160156 165.417969 218.613281 165.800781 217.511719 C 166.183594 224.710938 166.375 228.324219 166.757812 235.578125 L 166.757812 232.738281 C 166.953125 231.246094 167.046875 230.503906 167.238281 229.007812 C 167.8125 221.488281 168.105469 217.703125 168.679688 210.097656 C 169.066406 212.785156 169.257812 214.132812 169.644531 216.835938 C 170.03125 218.390625 170.222656 219.171875 170.609375 220.734375 C 170.992188 223.453125 171.1875 224.816406 171.574219 227.542969 C 171.574219 227.15625 171.578125 226.964844 171.578125 226.582031 C 171.769531 226.210938 171.867188 226.027344 172.0625 225.65625 C 172.449219 221.445312 172.640625 219.332031 173.03125 215.09375 C 173.417969 212.792969 173.609375 211.640625 174.003906 209.324219 C 174.195312 209.71875 174.292969 209.910156 174.488281 210.308594 C 174.878906 209.542969 175.070312 209.15625 175.457031 208.386719 C 175.65625 208.78125 175.75 208.976562 175.945312 209.371094 C 176.144531 218.332031 176.238281 222.816406 176.433594 231.796875 L 176.433594 225.949219 C 177.015625 224.421875 177.3125 223.65625 177.894531 222.117188 L 177.894531 210.390625 C 178.289062 209.617188 178.484375 209.230469 178.875 208.453125 C 179.070312 208.847656 179.164062 209.046875 179.363281 209.4375 C 179.753906 218.460938 179.949219 222.972656 180.339844 232.015625 L 180.339844 229.074219 C 180.730469 228.304688 180.929688 227.917969 181.320312 227.144531 C 181.515625 227.152344 181.613281 227.15625 181.8125 227.160156 C 182.203125 219.3125 182.398438 215.382812 182.789062 207.519531 C 183.183594 208.703125 183.378906 209.292969 183.769531 210.476562 L 183.769531 208.507812 C 183.96875 208.117188 184.066406 207.921875 184.261719 207.527344 C 184.457031 207.921875 184.554688 208.121094 184.75 208.515625 L 184.75 236.085938 C 185.144531 237.273438 185.339844 237.867188 185.734375 239.054688 L 185.734375 236.097656 C 185.929688 234.917969 186.03125 234.328125 186.226562 233.148438 C 186.8125 227.636719 187.109375 224.875 187.695312 219.359375 C 188.085938 220.542969 188.285156 221.132812 188.675781 222.3125 L 188.675781 219.355469 C 188.875 218.960938 188.972656 218.765625 189.167969 218.371094 C 189.558594 226.640625 189.753906 230.777344 190.144531 239.042969 C 190.339844 238.644531 190.441406 238.441406 190.636719 238.042969 L 190.636719 220.324219 C 191.03125 218.746094 191.226562 217.953125 191.621094 216.375 C 191.816406 216.371094 191.914062 216.371094 192.109375 216.367188 C 192.5 214.789062 192.695312 214 193.089844 212.421875 C 193.285156 212.8125 193.382812 213.007812 193.578125 213.394531 L 193.578125 238.929688 C 193.972656 238.910156 194.167969 238.902344 194.558594 238.882812 C 194.558594 236.132812 194.558594 234.761719 194.558594 232.015625 C 194.949219 230.820312 195.144531 230.222656 195.535156 229.03125 C 195.730469 223.535156 195.828125 220.789062 196.027344 215.304688 C 196.222656 215.691406 196.320312 215.882812 196.515625 216.265625 C 196.707031 216.261719 196.804688 216.257812 197 216.253906 L 197 213.320312 C 197.195312 212.144531 197.292969 211.554688 197.488281 210.382812 C 197.683594 210.375 197.785156 210.375 197.976562 210.371094 C 198.171875 210.753906 198.269531 210.949219 198.464844 211.332031 C 198.855469 219.117188 199.050781 223.003906 199.441406 230.757812 C 199.636719 230.355469 199.734375 230.152344 199.925781 229.746094 L 199.925781 227.808594 C 200.121094 218.078125 200.21875 213.21875 200.414062 203.511719 C 200.605469 203.898438 200.703125 204.089844 200.898438 204.476562 C 201.09375 204.085938 201.191406 203.890625 201.386719 203.5 C 201.578125 203.496094 201.675781 203.496094 201.867188 203.492188 C 202.257812 211.609375 202.453125 215.65625 202.839844 223.726562 L 202.839844 220.835938 C 203.035156 220.050781 203.128906 219.660156 203.328125 218.878906 C 203.714844 226.554688 203.90625 230.386719 204.292969 238.015625 C 204.675781 232.589844 204.871094 229.890625 205.257812 224.496094 C 205.644531 220.632812 205.835938 218.703125 206.21875 214.867188 C 206.605469 218.660156 206.796875 220.550781 207.183594 224.3125 C 207.566406 229.597656 207.757812 232.230469 208.140625 237.472656 C 208.332031 237.441406 208.429688 237.425781 208.617188 237.398438 C 209.253906 224.789062 209.890625 212.1875 210.527344 199.582031 C 210.71875 199.582031 210.8125 199.582031 211.003906 199.578125 C 211.195312 199.949219 211.292969 200.136719 211.480469 200.507812 C 211.671875 202.371094 211.765625 203.304688 211.957031 205.160156 C 212.148438 214.460938 212.242188 219.105469 212.429688 228.363281 C 213 223.820312 213.285156 221.5625 213.847656 217.078125 C 214.226562 224.789062 214.414062 228.621094 214.789062 236.25 L 214.789062 233.496094 C 214.976562 231.257812 215.070312 230.140625 215.257812 227.910156 C 215.632812 225.285156 215.824219 223.980469 216.195312 221.378906 C 216.386719 221.71875 216.480469 221.886719 216.664062 222.226562 L 216.664062 225.855469 C 217.226562 226.847656 217.507812 227.34375 218.0625 228.3125 C 218.4375 231.117188 218.621094 232.511719 218.996094 235.28125 C 219.179688 235.234375 219.269531 235.210938 219.457031 235.164062 L 219.457031 226.25 C 219.828125 224.042969 220.011719 222.941406 220.378906 220.757812 C 220.566406 221.082031 220.65625 221.242188 220.839844 221.5625 C 221.023438 221.179688 221.117188 220.988281 221.296875 220.605469 L 221.296875 218.847656 C 221.667969 216.324219 221.847656 215.074219 222.214844 212.589844 C 222.582031 219.1875 222.765625 222.464844 223.128906 228.960938 L 223.128906 228.097656 C 223.308594 221.808594 223.398438 218.675781 223.578125 212.433594 C 223.761719 212.414062 223.851562 212.402344 224.035156 212.382812 C 224.21875 212.703125 224.308594 212.863281 224.492188 213.183594 L 224.492188 224.332031 C 224.851562 228.023438 225.03125 229.859375 225.394531 233.488281 C 225.46875 231.46875 225.546875 229.609375 225.613281 227.84375 L 225.613281 175.242188 C 225.402344 174.769531 225.226562 174.40625 224.957031 173.828125 Z M 224.941406 173.828125 " fill-opacity="1" fill-rule="nonzero"/></g><g clip-path="url(#5bc0a5bd24)"><path fill="#ffffff" d="M 263.792969 196.894531 C 263.683594 196.996094 263.621094 197.046875 263.511719 197.152344 C 263.398438 197.023438 263.339844 196.957031 263.226562 196.828125 C 263 192.355469 262.886719 190.003906 262.652344 185.085938 C 262.539062 185.085938 262.480469 185.089844 262.363281 185.09375 C 262.25 189.367188 262.1875 191.550781 262.070312 196.027344 C 261.832031 195.324219 261.714844 194.964844 261.476562 194.203125 C 261.359375 194.035156 261.296875 193.945312 261.175781 193.769531 C 261.175781 193.34375 261.175781 193.136719 261.175781 192.710938 C 260.9375 189.234375 260.8125 187.421875 260.574219 183.667969 L 260.574219 191.382812 C 260.203125 191.808594 260.019531 192.042969 259.644531 192.539062 C 259.394531 190.898438 259.269531 190.054688 259.019531 188.304688 L 259.019531 188.707031 C 258.761719 191.636719 258.636719 193.152344 258.382812 196.300781 C 258.128906 195.609375 258 195.25 257.738281 194.515625 L 257.738281 195.375 C 257.609375 195.527344 257.539062 195.609375 257.410156 195.769531 C 257.28125 195.578125 257.214844 195.480469 257.085938 195.285156 L 257.085938 193.0625 C 256.828125 192.292969 256.6875 191.890625 256.425781 191.078125 L 256.425781 192.449219 C 256.289062 193.152344 256.222656 193.507812 256.089844 194.226562 C 255.957031 194.019531 255.890625 193.914062 255.753906 193.699219 C 255.621094 191.976562 255.554688 191.105469 255.417969 189.335938 C 255.011719 189.191406 254.804688 189.117188 254.394531 188.976562 L 254.394531 190.464844 C 254.253906 190.824219 254.1875 191.007812 254.050781 191.378906 C 253.773438 191.304688 253.632812 191.273438 253.351562 191.203125 L 253.351562 192.234375 C 253.210938 192.414062 253.140625 192.503906 252.996094 192.6875 C 252.859375 192.449219 252.789062 192.332031 252.648438 192.09375 L 252.648438 184.6875 C 252.226562 181.324219 252.011719 179.582031 251.578125 176 L 251.578125 177.644531 C 251.292969 183.15625 251.144531 185.976562 250.855469 191.738281 C 250.566406 190.5625 250.421875 189.96875 250.128906 188.746094 C 250.128906 189.429688 250.125 189.777344 250.125 190.460938 C 249.980469 190.65625 249.90625 190.753906 249.761719 190.953125 C 249.464844 190.203125 249.316406 189.824219 249.019531 189.042969 C 248.871094 189.242188 248.792969 189.347656 248.644531 189.550781 C 248.496094 189.28125 248.421875 189.140625 248.269531 188.867188 L 248.269531 181.054688 C 247.820312 179.65625 247.59375 178.945312 247.136719 177.484375 L 247.136719 179.335938 C 246.988281 180.5 246.910156 181.09375 246.757812 182.28125 C 246.453125 180.675781 246.300781 179.855469 245.988281 178.199219 L 245.988281 178.828125 C 245.835938 182.3125 245.757812 184.074219 245.601562 187.621094 C 245.449219 187.328125 245.371094 187.183594 245.214844 186.886719 L 245.214844 182.371094 C 244.90625 181.234375 244.75 180.652344 244.4375 179.484375 L 244.4375 180.796875 C 244.28125 181.003906 244.199219 181.109375 244.042969 181.320312 C 243.886719 181 243.808594 180.839844 243.648438 180.515625 L 243.648438 179.1875 C 243.019531 178.148438 242.699219 177.617188 242.058594 176.539062 C 241.738281 173.667969 241.574219 172.210938 241.25 169.257812 C 240.929688 174.390625 240.765625 176.992188 240.4375 182.273438 C 240.277344 182.230469 240.199219 182.210938 240.035156 182.167969 C 239.871094 181.839844 239.789062 181.675781 239.625 181.34375 L 239.625 170.597656 C 239.296875 169.59375 239.132812 169.082031 238.804688 168.054688 C 238.636719 168.269531 238.550781 168.375 238.386719 168.59375 C 238.222656 177.28125 238.136719 181.65625 237.976562 190.457031 C 237.308594 192.144531 236.972656 193.011719 236.296875 194.785156 C 235.960938 192.058594 235.789062 190.675781 235.457031 187.890625 L 235.457031 190.175781 C 235.117188 192.574219 234.945312 193.789062 234.605469 196.246094 C 234.433594 195.933594 234.351562 195.777344 234.175781 195.460938 C 234.007812 188.015625 233.921875 184.277344 233.75 176.75 C 233.40625 175.410156 233.234375 174.738281 232.886719 173.375 C 232.714844 178.988281 232.632812 181.816406 232.457031 187.492188 C 232.113281 191.242188 231.933594 193.144531 231.589844 196.976562 C 231.414062 196.652344 231.328125 196.492188 231.15625 196.167969 C 230.804688 187.160156 230.628906 182.613281 230.277344 173.433594 C 229.925781 169.769531 229.753906 167.921875 229.398438 164.195312 C 229.226562 164.460938 229.136719 164.59375 228.960938 164.859375 C 228.785156 172.042969 228.691406 175.648438 228.515625 182.890625 C 228.339844 182.863281 228.25 182.851562 228.070312 182.824219 C 227.539062 188.71875 227.273438 191.703125 226.738281 197.753906 C 226.554688 197.417969 226.464844 197.25 226.289062 196.910156 C 226.109375 188.464844 226.019531 184.226562 225.835938 175.714844 C 225.753906 175.539062 225.683594 175.382812 225.609375 175.242188 L 225.609375 227.84375 C 226.015625 217.578125 226.277344 210.917969 226.738281 199.433594 C 226.917969 199.769531 227.003906 199.9375 227.183594 200.269531 C 227.539062 207.960938 227.71875 211.773438 228.070312 219.335938 L 228.070312 217.675781 C 228.25 217.308594 228.339844 217.128906 228.515625 216.765625 C 228.691406 217.0625 228.78125 217.210938 228.957031 217.503906 C 228.957031 223.425781 228.960938 226.386719 228.960938 232.308594 C 229.3125 232.183594 229.488281 232.121094 229.839844 231.996094 L 229.839844 229.550781 C 230.019531 226.558594 230.101562 225.070312 230.28125 222.105469 C 230.804688 213.207031 231.066406 208.820312 231.589844 200.175781 C 231.765625 200.488281 231.851562 200.644531 232.023438 200.957031 C 232.371094 212.402344 232.546875 218.066406 232.886719 229.273438 C 233.234375 226.625 233.40625 225.3125 233.75 222.714844 C 234.09375 213.570312 234.261719 209.046875 234.605469 200.101562 C 234.773438 200.40625 234.859375 200.558594 235.027344 200.859375 C 235.027344 203.613281 235.027344 204.992188 235.027344 207.753906 C 235.367188 210.46875 235.539062 211.808594 235.878906 214.464844 L 235.878906 213.703125 C 236.042969 209.425781 236.128906 207.300781 236.296875 203.070312 C 236.972656 204.230469 237.304688 204.792969 237.972656 205.894531 C 238.136719 214.988281 238.222656 219.507812 238.386719 228.484375 C 238.878906 228.253906 239.128906 228.136719 239.621094 227.898438 L 239.621094 215.722656 C 239.949219 214.769531 240.113281 214.296875 240.4375 213.367188 C 240.601562 213.605469 240.683594 213.726562 240.847656 213.964844 L 240.847656 227.292969 C 241.65625 226.886719 242.0625 226.679688 242.855469 226.253906 L 242.855469 224.222656 C 243.015625 223.871094 243.09375 223.703125 243.253906 223.355469 C 243.410156 223.28125 243.492188 223.238281 243.648438 223.160156 L 243.648438 221.160156 C 243.804688 220.289062 243.886719 219.859375 244.042969 218.996094 C 244.359375 219.925781 244.515625 220.378906 244.828125 221.265625 C 245.136719 218.511719 245.292969 217.15625 245.601562 214.488281 C 245.757812 214.6875 245.832031 214.789062 245.988281 214.984375 L 245.988281 221.960938 C 246.605469 222.394531 246.910156 222.597656 247.515625 222.964844 L 247.515625 221.128906 C 247.667969 220.800781 247.746094 220.632812 247.898438 220.308594 C 248.046875 216.828125 248.121094 215.105469 248.269531 211.691406 C 248.570312 211.109375 248.722656 210.820312 249.019531 210.257812 C 249.167969 210.207031 249.238281 210.179688 249.390625 210.132812 L 249.390625 208.382812 C 249.535156 207.640625 249.613281 207.273438 249.757812 206.546875 C 250.054688 206.941406 250.199219 207.136719 250.492188 207.507812 L 250.492188 205.8125 C 250.640625 205.101562 250.710938 204.746094 250.855469 204.050781 C 251 204.25 251.074219 204.347656 251.21875 204.542969 C 251.363281 211.15625 251.4375 214.429688 251.578125 220.898438 C 252.007812 220.15625 252.226562 219.789062 252.648438 219.070312 L 252.648438 217.484375 C 252.789062 211.890625 252.859375 209.128906 252.996094 203.667969 C 253.28125 205.078125 253.421875 205.761719 253.699219 207.101562 C 253.699219 206.488281 253.703125 206.183594 253.703125 205.574219 C 253.839844 205.332031 253.910156 205.214844 254.046875 204.976562 C 254.1875 205.144531 254.253906 205.226562 254.390625 205.386719 C 254.53125 209.527344 254.597656 211.570312 254.738281 215.601562 L 254.738281 214.128906 C 254.875 212.867188 254.941406 212.242188 255.078125 211.011719 C 255.347656 208.550781 255.484375 207.34375 255.753906 205.007812 C 256.160156 206.964844 256.355469 207.902344 256.753906 209.679688 C 256.753906 209.503906 256.753906 209.410156 256.753906 209.230469 C 257.019531 205.847656 257.152344 204.207031 257.410156 201.023438 C 257.542969 201.179688 257.605469 201.253906 257.734375 201.40625 C 257.867188 201.386719 257.929688 201.375 258.058594 201.355469 L 258.058594 200.929688 C 258.191406 200.742188 258.25 200.652344 258.382812 200.46875 C 258.507812 200.621094 258.570312 200.695312 258.699219 200.839844 C 258.828125 204.757812 258.890625 206.683594 259.015625 210.464844 C 259.148438 210.382812 259.207031 210.339844 259.332031 210.253906 L 259.332031 209.0625 C 259.707031 208.195312 259.894531 207.78125 260.261719 206.976562 C 260.507812 209.539062 260.632812 210.765625 260.875 213.117188 C 260.875 212.683594 260.875 212.472656 260.875 212.035156 C 261.117188 208.070312 261.238281 206.160156 261.476562 202.492188 C 261.597656 202.457031 261.65625 202.4375 261.773438 202.398438 L 261.773438 201.386719 C 261.890625 201.085938 261.953125 200.941406 262.070312 200.65625 C 262.1875 200.765625 262.25 200.816406 262.363281 200.921875 L 262.363281 211.582031 C 262.597656 211.332031 262.714844 211.207031 262.9375 210.953125 L 262.9375 210.644531 C 263.171875 205.964844 263.285156 203.734375 263.511719 199.492188 C 263.621094 199.59375 263.683594 199.644531 263.792969 199.742188 L 263.792969 200.597656 C 263.90625 200.570312 263.960938 200.558594 264.074219 200.53125 L 264.074219 196.929688 C 263.957031 196.898438 263.902344 196.894531 263.789062 196.878906 Z M 263.792969 196.894531 " fill-opacity="1" fill-rule="nonzero"/></g><path stroke-linecap="butt" transform="matrix(3.75, 0, 0, 3.75, 91.874998, 199.555446)" fill="none" stroke-linejoin="miter" d="M 0.000000408833 -0.000202292 L 51.000004 -0.000202292 " stroke="#ffffff" stroke-width="1" stroke-opacity="1" stroke-miterlimit="4"/></svg>